<svg width="68" height="72" viewBox="0 0 68 72" fill="none" xmlns="http://www.w3.org/2000/svg">
<path d="M67.75 36.7188H29.125L43.2812 26.5938C40.6562 24.5312 37.8125 23 34.75 22C31.75 20.9375 28.5312 20.4062 25.0938 20.4062C23.3438 20.4062 21.875 20.5625 20.6875 20.875C19.5625 21.1875 18.6875 21.6875 18.0625 22.375C17.375 23 16.875 23.9062 16.5625 25.0938C16.25 26.2812 16.0938 27.75 16.0938 29.5C16.0938 31.875 16.4062 34.2812 17.0312 36.7188C17.6562 39.1562 18.5625 41.6562 19.75 44.2188C21 46.7812 22.5312 49.375 24.3438 52C26.2188 54.5625 28.375 57.2188 30.8125 59.9688L19.6562 71.2188C16.4062 67.2812 13.5625 63.4375 11.125 59.6875C8.6875 55.9375 6.65625 52.3125 5.03125 48.8125C3.40625 45.3125 2.21875 41.9062 1.46875 38.5938C0.65625 35.2812 0.25 32.0625 0.25 28.9375C0.25 25.1875 0.78125 21.8438 1.84375 18.9062C2.96875 15.9687 4.65625 13.4063 6.90625 11.2188C9.15625 8.96875 11.7812 7.3125 14.7812 6.25C17.7812 5.125 21.125 4.5625 24.8125 4.5625C27.0625 4.5625 29.375 4.78125 31.75 5.21875C34.125 5.65625 36.5312 6.3125 38.9688 7.1875C41.4688 8.0625 44 9.125 46.5625 10.375C49.125 11.6875 51.75 13.1875 54.4375 14.875L62.7812 0.8125L67.75 36.7188Z" fill="black"/>
</svg>
